<svg width="830" height="685" viewBox="0 0 830 685" fill="none" xmlns="http://www.w3.org/2000/svg">
<g clip-path="url(#clip0_406_3)">
<path d="M421 205.032C417.493 212.112 416.849 222.805 417.818 234.827C418.821 247.254 421.559 261.206 424.759 274.273C427.96 287.344 431.627 299.545 434.493 308.478C435.927 312.944 437.16 316.595 438.035 319.129C438.473 320.396 438.821 321.384 439.06 322.056C439.105 322.184 439.147 322.3 439.185 322.405C438.934 322.403 438.62 322.401 438.245 322.397C437.166 322.387 435.585 322.37 433.581 322.344C429.573 322.292 423.871 322.205 417.096 322.063C403.543 321.781 385.697 321.281 368.519 320.416C351.334 319.55 334.84 318.319 323.979 316.575C321.265 316.139 318.911 315.673 316.99 315.175C315.061 314.674 313.6 314.148 312.653 313.605C311.662 313.038 311.441 312.579 311.482 312.265C311.506 312.086 311.618 311.846 311.918 311.545C312.217 311.245 312.673 310.915 313.316 310.562C316.125 309.016 318.297 305.979 319.977 301.957C321.66 297.926 322.875 292.839 323.728 287.098C325.432 275.614 325.698 261.426 325.298 247.628C324.898 233.825 323.832 220.391 322.865 210.41C322.382 205.419 321.923 201.291 321.586 198.409C321.417 196.968 321.278 195.839 321.182 195.07C321.155 194.859 321.131 194.675 321.111 194.52L421 205.032Z" fill="#FFB9B9" stroke="#2F195C"/>
<path d="M375.422 102.891C415.758 102.891 448.458 135.59 448.458 175.927C448.458 216.264 415.758 248.963 375.422 248.963C335.085 248.963 302.386 216.264 302.386 175.927C302.386 135.59 335.085 102.891 375.422 102.891Z" fill="#FFB9B9" stroke="#2F195C"/>
<path d="M324.536 269.098C326.635 273.642 330.445 277.382 334.959 280.437C339.627 283.597 345.082 286.047 350.268 287.91C355.456 289.773 360.39 291.053 364.026 291.868C365.845 292.275 367.34 292.567 368.382 292.756C368.903 292.851 369.31 292.921 369.588 292.966C369.727 292.989 369.833 293.006 369.905 293.017C369.941 293.023 369.969 293.027 369.987 293.03C369.997 293.031 370.004 293.033 370.009 293.034C370.011 293.034 370.013 293.033 370.015 293.034L370.016 293.035C370.016 293.035 370.017 293.034 370.091 292.54L370.017 293.035L370.07 293.042L370.125 293.039C385.655 291.968 399.498 287.34 409.452 282.984C414.431 280.805 418.441 278.694 421.208 277.125C422.592 276.341 423.664 275.692 424.393 275.239C424.757 275.012 425.035 274.835 425.223 274.713C425.245 274.699 425.266 274.683 425.286 274.67L547.49 323.746L535.262 379.433L509.212 498.123L509.207 498.146L509.204 498.17L508.424 504.67L499.434 579.92L493.454 629.911L489.476 663.225C477.388 669.436 466.965 674.687 459.55 678.391C455.818 680.255 452.847 681.727 450.811 682.734C449.792 683.237 449.007 683.624 448.477 683.885C448.395 683.925 448.32 683.962 448.251 683.996C448.211 683.801 448.162 683.562 448.104 683.285C447.923 682.416 447.656 681.158 447.312 679.594C446.625 676.467 445.632 672.119 444.405 667.238L444.277 666.731L443.776 666.881C426.846 671.957 395.703 680.33 369.112 682.145C369.037 681.912 368.935 681.633 368.809 681.313C368.231 679.854 367.101 677.402 365.5 674.101C362.295 667.49 357.177 657.414 350.746 644.906C337.878 619.878 319.762 585.133 301.146 548.866C282.533 512.606 263.437 474.853 248.633 443.851C241.23 428.35 234.904 414.541 230.247 403.454C225.728 392.693 222.804 384.545 221.978 379.901L221.904 379.462C218.41 357.108 215.567 337.352 214.053 326.611L213.006 319.112L213.005 319.109L212.907 318.424L324.536 269.098Z" fill="#6A38C2" stroke="#2F195C"/>
<path d="M362.777 58.8057C365.709 58.2323 369.881 57.7651 374.826 58.1904C384.549 59.0268 397.3 63.3185 409.533 77.1357L410.116 77.8008C423.263 92.9979 438.421 110.807 447.866 130.851L448.002 131.137H462.269L456.442 143.962L456.262 144.359L456.632 144.592L476.3 156.966L456.385 154.773L455.721 154.7L455.838 155.357C457.145 162.718 457.345 170.232 456.434 177.652C455.53 184.788 451.966 191.309 446.47 195.924C446.352 195.679 446.199 195.358 446.015 194.972C445.549 193.996 444.883 192.597 444.084 190.9C442.486 187.507 440.356 182.925 438.227 178.173C436.096 173.419 433.968 168.499 432.374 164.428C431.577 162.391 430.915 160.573 430.454 159.098C430.045 157.788 429.808 156.794 429.755 156.163L429.744 155.915H428.744V168.522C428.398 168.192 427.956 167.766 427.449 167.259C426.168 165.976 424.46 164.181 422.754 162.132C421.046 160.081 419.348 157.785 418.08 155.5C416.807 153.206 415.995 150.973 415.995 149.034V147.578L415.101 148.727L408.232 157.548L404.73 143.41L404.601 142.888L404.089 143.055L359.123 157.771L365.925 146.541L366.472 145.637L365.426 145.787L337.865 149.744L348.399 135.571L347.757 134.835L347.998 135.273C347.757 134.835 347.756 134.835 347.756 134.835L347.755 134.836C347.754 134.837 347.752 134.838 347.75 134.839C347.746 134.841 347.74 134.844 347.732 134.849C347.716 134.857 347.692 134.87 347.661 134.888C347.599 134.922 347.507 134.974 347.387 135.042C347.147 135.178 346.795 135.379 346.348 135.64C345.453 136.161 344.174 136.921 342.636 137.881C339.56 139.8 335.444 142.519 331.287 145.714C327.132 148.907 322.922 152.587 319.667 156.431C316.422 160.263 314.076 164.318 313.751 168.259C313.133 175.745 310.468 183.054 307.945 188.507C306.686 191.23 305.465 193.483 304.56 195.054C304.186 195.701 303.865 196.231 303.619 196.632C303.447 196.121 303.216 195.42 302.939 194.549C302.315 192.58 301.463 189.743 300.554 186.273C298.735 179.333 296.688 169.87 295.771 159.771C294.853 149.666 295.068 138.952 297.753 129.497C300.435 120.05 305.573 111.883 314.493 106.804L315.395 106.29L314.432 105.905L301.365 100.678C301.57 100.466 301.837 100.194 302.163 99.8691C303.021 99.0155 304.293 97.7966 305.944 96.3418C309.248 93.4318 314.07 89.5793 320.135 85.8125C332.27 78.276 349.352 71.102 369.21 72.4678L370.45 72.5527L369.614 71.6328L358.869 59.8047C359.014 59.7568 359.182 59.7031 359.37 59.6455C360.156 59.4054 361.312 59.0923 362.777 58.8057Z" fill="#090814" stroke="#2F195C"/>
<path d="M547.748 323.94C547.831 324.122 547.954 324.389 548.112 324.738C548.439 325.455 548.92 326.518 549.542 327.897C550.786 330.655 552.59 334.68 554.831 339.745C558.753 348.609 564.015 360.659 569.954 374.685L572.539 380.814C574.106 384.548 575.713 388.4 577.346 392.353L578.987 396.339V396.34C593.375 431.336 609.533 473.254 620.08 508.597C625.354 526.271 629.22 542.282 630.763 554.953C631.534 561.289 631.722 566.77 631.224 571.196C630.739 575.494 629.614 578.735 627.81 580.813L627.633 581.011H627.632C623.928 585.027 617.456 590.087 609.071 595.812C601.742 600.816 592.976 606.312 583.365 612.041L579.196 614.509C571.876 618.812 564.142 623.23 556.235 627.642L552.837 629.533C533.864 640.056 514.109 650.495 496.914 659.391L489.711 663.105C477.523 669.369 467.012 674.663 459.549 678.391C455.817 680.255 452.847 681.727 450.811 682.734C449.792 683.237 449.006 683.624 448.476 683.885C448.394 683.925 448.319 683.962 448.25 683.996C448.21 683.801 448.161 683.562 448.104 683.285C447.922 682.416 447.655 681.158 447.312 679.594C446.71 676.858 445.875 673.187 444.854 669.042L444.404 667.238C442.763 660.706 440.705 653.212 438.41 646.413C436.192 639.838 433.738 633.868 431.207 630.049L430.961 629.686V629.685L430.683 629.296L430.41 628.93L430.407 628.927L430.122 628.562C429.086 627.273 427.991 626.306 426.847 625.869L500.193 580.405L532.354 560.465L532.716 560.24L532.551 559.847L509.381 504.537L480.392 435.325L497.877 379.69L515.396 323.94H547.748Z" fill="#6A38C2" stroke="#2F195C"/>
<path d="M226.855 319.68L236.767 379.621L249.146 454.495L240.491 482.723L220.411 548.173L220.327 548.448L220.521 548.658L239.712 569.498L294.357 628.82C292.337 628.859 290.322 629.025 288.322 629.318L287.307 629.477H287.305C264.693 633.362 257.573 653.321 255.391 667.271L255.194 668.598C254.623 672.536 254.378 676.515 254.461 680.492L234.984 665.514L227.584 659.823L227.521 659.775L227.444 659.748L226.615 659.454C209.778 653.421 194.682 643.065 181.476 630.818L180.184 629.607C168.645 618.504 158.257 606.266 149.178 593.078L148.304 591.799L148.302 591.797L146.578 589.26C138.591 577.386 131.376 565.011 124.978 552.21L123.619 549.46C121.645 545.418 120.584 540.992 120.511 536.494C120.442 532.278 121.244 528.096 122.861 524.208L123.196 523.435L148.346 467.385L185.105 385.465L185.136 385.399L185.145 385.327C185.344 383.87 185.561 382.436 185.794 381.028L186.032 379.626C189.666 358.79 196.348 343.755 202.114 333.938C204.997 329.029 207.652 325.423 209.582 323.048C210.547 321.861 211.331 320.981 211.872 320.4C212.143 320.109 212.353 319.893 212.494 319.75C212.52 319.724 212.543 319.701 212.564 319.68H226.855Z" fill="#6A38C2" stroke="#2F195C"/>
<mask id="path-7-inside-1_406_3" fill="white">
<path d="M603.15 663.375V669.445C603.154 671.111 602.845 672.763 602.24 674.315C601.972 675.007 601.647 675.676 601.27 676.315C600.078 678.315 598.387 679.972 596.362 681.122C594.338 682.272 592.049 682.876 589.72 682.875H143.17C140.842 682.876 138.553 682.272 136.528 681.122C134.503 679.972 132.812 678.315 131.62 676.315C131.243 675.676 130.919 675.007 130.65 674.315C130.045 672.763 129.737 671.111 129.74 669.445V663.375C129.74 661.611 130.087 659.865 130.762 658.235C131.436 656.605 132.425 655.125 133.673 653.877C134.92 652.63 136.401 651.641 138.03 650.966C139.66 650.291 141.406 649.944 143.17 649.945H168.913V647.115C168.913 647.041 168.928 646.968 168.956 646.9C168.984 646.832 169.025 646.771 169.077 646.719C169.129 646.667 169.191 646.625 169.259 646.597C169.327 646.569 169.4 646.555 169.473 646.555H182.903C182.977 646.555 183.05 646.569 183.118 646.597C183.186 646.625 183.247 646.667 183.3 646.719C183.352 646.771 183.393 646.832 183.421 646.9C183.449 646.968 183.463 647.041 183.463 647.115V649.945H191.853V647.115C191.853 647.041 191.868 646.968 191.896 646.9C191.924 646.832 191.965 646.771 192.017 646.719C192.069 646.667 192.131 646.625 192.199 646.597C192.267 646.569 192.34 646.555 192.413 646.555H205.843C205.917 646.555 205.99 646.569 206.058 646.597C206.126 646.625 206.188 646.667 206.24 646.719C206.292 646.771 206.333 646.832 206.361 646.9C206.389 646.968 206.403 647.041 206.403 647.115V649.945H214.803V647.115C214.803 647.041 214.818 646.968 214.846 646.9C214.874 646.832 214.915 646.771 214.967 646.719C215.019 646.667 215.081 646.625 215.149 646.597C215.217 646.569 215.29 646.555 215.363 646.555H228.793C228.867 646.555 228.94 646.569 229.008 646.597C229.076 646.625 229.138 646.667 229.19 646.719C229.242 646.771 229.283 646.832 229.311 646.9C229.339 646.968 229.353 647.041 229.353 647.115V649.945H237.743V647.115C237.743 647.041 237.758 646.968 237.786 646.9C237.814 646.832 237.855 646.771 237.907 646.719C237.959 646.667 238.021 646.625 238.089 646.597C238.157 646.569 238.23 646.555 238.303 646.555H251.733C251.807 646.555 251.88 646.569 251.948 646.597C252.016 646.625 252.078 646.667 252.13 646.719C252.182 646.771 252.223 646.832 252.251 646.9C252.279 646.968 252.293 647.041 252.293 647.115V649.945H260.683V647.115C260.683 647.041 260.698 646.968 260.726 646.9C260.754 646.832 260.795 646.771 260.847 646.719C260.899 646.667 260.961 646.625 261.029 646.597C261.097 646.569 261.17 646.555 261.243 646.555H274.673C274.747 646.555 274.82 646.569 274.888 646.597C274.956 646.625 275.018 646.667 275.07 646.719C275.122 646.771 275.163 646.832 275.191 646.9C275.219 646.968 275.233 647.041 275.233 647.115V649.945H283.633V647.115C283.633 647.041 283.648 646.968 283.676 646.9C283.704 646.832 283.745 646.771 283.797 646.719C283.849 646.667 283.911 646.625 283.979 646.597C284.047 646.569 284.12 646.555 284.193 646.555H297.623C297.697 646.555 297.77 646.569 297.838 646.597C297.906 646.625 297.968 646.667 298.02 646.719C298.072 646.771 298.113 646.832 298.141 646.9C298.169 646.968 298.183 647.041 298.183 647.115V649.945H306.573V647.115C306.573 647.041 306.588 646.968 306.616 646.9C306.644 646.832 306.685 646.771 306.737 646.719C306.789 646.667 306.851 646.625 306.919 646.597C306.987 646.569 307.06 646.555 307.133 646.555H412.333C412.407 646.555 412.48 646.569 412.548 646.597C412.616 646.625 412.677 646.667 412.73 646.719C412.782 646.771 412.823 646.832 412.851 646.9C412.879 646.968 412.893 647.041 412.893 647.115V649.945H421.293V647.115C421.293 647.041 421.308 646.968 421.336 646.9C421.364 646.832 421.405 646.771 421.457 646.719C421.509 646.667 421.571 646.625 421.639 646.597C421.707 646.569 421.78 646.555 421.853 646.555H435.283C435.431 646.556 435.573 646.616 435.678 646.721C435.782 646.825 435.842 646.967 435.843 647.115V649.945H444.233V647.115C444.233 647.041 444.248 646.968 444.276 646.9C444.304 646.832 444.345 646.771 444.397 646.719C444.449 646.667 444.511 646.625 444.579 646.597C444.647 646.569 444.72 646.555 444.793 646.555H458.223C458.297 646.555 458.37 646.569 458.438 646.597C458.506 646.625 458.568 646.667 458.62 646.719C458.672 646.771 458.713 646.832 458.741 646.9C458.769 646.968 458.783 647.041 458.783 647.115V649.945H467.173V647.115C467.173 647.041 467.188 646.968 467.216 646.9C467.244 646.832 467.285 646.771 467.337 646.719C467.389 646.667 467.451 646.625 467.519 646.597C467.587 646.569 467.66 646.555 467.733 646.555H481.163C481.237 646.555 481.31 646.569 481.378 646.597C481.446 646.625 481.508 646.667 481.56 646.719C481.612 646.771 481.653 646.832 481.681 646.9C481.709 646.968 481.723 647.041 481.723 647.115V649.945H490.123V647.115C490.123 647.041 490.138 646.968 490.166 646.9C490.194 646.832 490.235 646.771 490.287 646.719C490.339 646.667 490.401 646.625 490.469 646.597C490.537 646.569 490.61 646.555 490.683 646.555H504.113C504.26 646.557 504.401 646.617 504.504 646.722C504.607 646.826 504.664 646.968 504.663 647.115V649.945H513.063V647.115C513.063 647.041 513.078 646.968 513.106 646.9C513.134 646.832 513.175 646.771 513.227 646.719C513.279 646.667 513.341 646.625 513.409 646.597C513.477 646.569 513.55 646.555 513.623 646.555H527.053C527.127 646.555 527.2 646.569 527.268 646.597C527.336 646.625 527.398 646.667 527.45 646.719C527.502 646.771 527.543 646.832 527.571 646.9C527.599 646.968 527.613 647.041 527.613 647.115V649.945H536.003V647.115C536.003 647.041 536.018 646.968 536.046 646.9C536.074 646.832 536.115 646.771 536.167 646.719C536.219 646.667 536.281 646.625 536.349 646.597C536.417 646.569 536.49 646.555 536.563 646.555H549.993C550.067 646.555 550.14 646.569 550.208 646.597C550.276 646.625 550.338 646.667 550.39 646.719C550.442 646.771 550.483 646.832 550.511 646.9C550.539 646.968 550.553 647.041 550.553 647.115V649.945H589.723C591.487 649.944 593.234 650.291 594.863 650.966C596.493 651.641 597.974 652.63 599.221 653.877C600.468 655.125 601.457 656.605 602.132 658.235C602.807 659.865 603.154 661.611 603.153 663.375H603.15Z"/>
</mask>
<path d="M603.15 663.375V669.445C603.154 671.111 602.845 672.763 602.24 674.315C601.972 675.007 601.647 675.676 601.27 676.315C600.078 678.315 598.387 679.972 596.362 681.122C594.338 682.272 592.049 682.876 589.72 682.875H143.17C140.842 682.876 138.553 682.272 136.528 681.122C134.503 679.972 132.812 678.315 131.62 676.315C131.243 675.676 130.919 675.007 130.65 674.315C130.045 672.763 129.737 671.111 129.74 669.445V663.375C129.74 661.611 130.087 659.865 130.762 658.235C131.436 656.605 132.425 655.125 133.673 653.877C134.92 652.63 136.401 651.641 138.03 650.966C139.66 650.291 141.406 649.944 143.17 649.945H168.913V647.115C168.913 647.041 168.928 646.968 168.956 646.9C168.984 646.832 169.025 646.771 169.077 646.719C169.129 646.667 169.191 646.625 169.259 646.597C169.327 646.569 169.4 646.555 169.473 646.555H182.903C182.977 646.555 183.05 646.569 183.118 646.597C183.186 646.625 183.247 646.667 183.3 646.719C183.352 646.771 183.393 646.832 183.421 646.9C183.449 646.968 183.463 647.041 183.463 647.115V649.945H191.853V647.115C191.853 647.041 191.868 646.968 191.896 646.9C191.924 646.832 191.965 646.771 192.017 646.719C192.069 646.667 192.131 646.625 192.199 646.597C192.267 646.569 192.34 646.555 192.413 646.555H205.843C205.917 646.555 205.99 646.569 206.058 646.597C206.126 646.625 206.188 646.667 206.24 646.719C206.292 646.771 206.333 646.832 206.361 646.9C206.389 646.968 206.403 647.041 206.403 647.115V649.945H214.803V647.115C214.803 647.041 214.818 646.968 214.846 646.9C214.874 646.832 214.915 646.771 214.967 646.719C215.019 646.667 215.081 646.625 215.149 646.597C215.217 646.569 215.29 646.555 215.363 646.555H228.793C228.867 646.555 228.94 646.569 229.008 646.597C229.076 646.625 229.138 646.667 229.19 646.719C229.242 646.771 229.283 646.832 229.311 646.9C229.339 646.968 229.353 647.041 229.353 647.115V649.945H237.743V647.115C237.743 647.041 237.758 646.968 237.786 646.9C237.814 646.832 237.855 646.771 237.907 646.719C237.959 646.667 238.021 646.625 238.089 646.597C238.157 646.569 238.23 646.555 238.303 646.555H251.733C251.807 646.555 251.88 646.569 251.948 646.597C252.016 646.625 252.078 646.667 252.13 646.719C252.182 646.771 252.223 646.832 252.251 646.9C252.279 646.968 252.293 647.041 252.293 647.115V649.945H260.683V647.115C260.683 647.041 260.698 646.968 260.726 646.9C260.754 646.832 260.795 646.771 260.847 646.719C260.899 646.667 260.961 646.625 261.029 646.597C261.097 646.569 261.17 646.555 261.243 646.555H274.673C274.747 646.555 274.82 646.569 274.888 646.597C274.956 646.625 275.018 646.667 275.07 646.719C275.122 646.771 275.163 646.832 275.191 646.9C275.219 646.968 275.233 647.041 275.233 647.115V649.945H283.633V647.115C283.633 647.041 283.648 646.968 283.676 646.9C283.704 646.832 283.745 646.771 283.797 646.719C283.849 646.667 283.911 646.625 283.979 646.597C284.047 646.569 284.12 646.555 284.193 646.555H297.623C297.697 646.555 297.77 646.569 297.838 646.597C297.906 646.625 297.968 646.667 298.02 646.719C298.072 646.771 298.113 646.832 298.141 646.9C298.169 646.968 298.183 647.041 298.183 647.115V649.945H306.573V647.115C306.573 647.041 306.588 646.968 306.616 646.9C306.644 646.832 306.685 646.771 306.737 646.719C306.789 646.667 306.851 646.625 306.919 646.597C306.987 646.569 307.06 646.555 307.133 646.555H412.333C412.407 646.555 412.48 646.569 412.548 646.597C412.616 646.625 412.677 646.667 412.73 646.719C412.782 646.771 412.823 646.832 412.851 646.9C412.879 646.968 412.893 647.041 412.893 647.115V649.945H421.293V647.115C421.293 647.041 421.308 646.968 421.336 646.9C421.364 646.832 421.405 646.771 421.457 646.719C421.509 646.667 421.571 646.625 421.639 646.597C421.707 646.569 421.78 646.555 421.853 646.555H435.283C435.431 646.556 435.573 646.616 435.678 646.721C435.782 646.825 435.842 646.967 435.843 647.115V649.945H444.233V647.115C444.233 647.041 444.248 646.968 444.276 646.9C444.304 646.832 444.345 646.771 444.397 646.719C444.449 646.667 444.511 646.625 444.579 646.597C444.647 646.569 444.72 646.555 444.793 646.555H458.223C458.297 646.555 458.37 646.569 458.438 646.597C458.506 646.625 458.568 646.667 458.62 646.719C458.672 646.771 458.713 646.832 458.741 646.9C458.769 646.968 458.783 647.041 458.783 647.115V649.945H467.173V647.115C467.173 647.041 467.188 646.968 467.216 646.9C467.244 646.832 467.285 646.771 467.337 646.719C467.389 646.667 467.451 646.625 467.519 646.597C467.587 646.569 467.66 646.555 467.733 646.555H481.163C481.237 646.555 481.31 646.569 481.378 646.597C481.446 646.625 481.508 646.667 481.56 646.719C481.612 646.771 481.653 646.832 481.681 646.9C481.709 646.968 481.723 647.041 481.723 647.115V649.945H490.123V647.115C490.123 647.041 490.138 646.968 490.166 646.9C490.194 646.832 490.235 646.771 490.287 646.719C490.339 646.667 490.401 646.625 490.469 646.597C490.537 646.569 490.61 646.555 490.683 646.555H504.113C504.26 646.557 504.401 646.617 504.504 646.722C504.607 646.826 504.664 646.968 504.663 647.115V649.945H513.063V647.115C513.063 647.041 513.078 646.968 513.106 646.9C513.134 646.832 513.175 646.771 513.227 646.719C513.279 646.667 513.341 646.625 513.409 646.597C513.477 646.569 513.55 646.555 513.623 646.555H527.053C527.127 646.555 527.2 646.569 527.268 646.597C527.336 646.625 527.398 646.667 527.45 646.719C527.502 646.771 527.543 646.832 527.571 646.9C527.599 646.968 527.613 647.041 527.613 647.115V649.945H536.003V647.115C536.003 647.041 536.018 646.968 536.046 646.9C536.074 646.832 536.115 646.771 536.167 646.719C536.219 646.667 536.281 646.625 536.349 646.597C536.417 646.569 536.49 646.555 536.563 646.555H549.993C550.067 646.555 550.14 646.569 550.208 646.597C550.276 646.625 550.338 646.667 550.39 646.719C550.442 646.771 550.483 646.832 550.511 646.9C550.539 646.968 550.553 647.041 550.553 647.115V649.945H589.723C591.487 649.944 593.234 650.291 594.863 650.966C596.493 651.641 597.974 652.63 599.221 653.877C600.468 655.125 601.457 656.605 602.132 658.235C602.807 659.865 603.154 661.611 603.153 663.375H603.15Z" fill="#090814" stroke="#2F195C" stroke-width="2" mask="url(#path-7-inside-1_406_3)"/>
<path d="M732.5 683.23V684.23H0.5V683.23H732.5Z" fill="#CCCCCC" stroke="#2F195C"/>
<path d="M400.251 404.814V408.245H567.345C568.706 408.264 570.052 408.539 571.311 409.06C572.616 409.601 573.803 410.393 574.802 411.392C575.801 412.391 576.593 413.577 577.134 414.882C577.674 416.188 577.952 417.588 577.952 419V646.915C577.952 648.327 577.674 649.727 577.134 651.033C576.593 652.338 575.801 653.524 574.802 654.523C573.803 655.522 572.616 656.314 571.311 656.855C570.005 657.396 568.606 657.674 567.193 657.674H158.15L157.621 657.661C156.389 657.6 155.175 657.328 154.033 656.855C152.728 656.314 151.542 655.522 150.543 654.523C149.544 653.524 148.752 652.338 148.211 651.033C147.67 649.727 147.392 648.327 147.392 646.915V419L147.405 418.467C147.538 415.809 148.653 413.286 150.544 411.395C152.435 409.504 154.958 408.39 157.616 408.258L158.149 408.245H325.778V404.814H400.251Z" fill="#090814" stroke="#2F195C"/>
<path d="M363 512.315C376.807 512.315 388 501.122 388 487.315C388 473.508 376.807 462.315 363 462.315C349.193 462.315 338 473.508 338 487.315C338 501.122 349.193 512.315 363 512.315Z" stroke="#2F195C" stroke-width="2" stroke-miterlimit="10"/>
<path d="M355 471.815C368.531 471.815 379.5 482.784 379.5 496.315C379.5 509.846 368.531 520.815 355 520.815C341.469 520.815 330.5 509.846 330.5 496.315C330.5 482.784 341.469 471.815 355 471.815Z" fill="#F2F2F2" stroke="#2F195C"/>
<path d="M90.2852 108.118C114.573 108.118 134.262 127.807 134.263 152.094C134.263 176.382 114.573 196.072 90.2852 196.072C65.9975 196.072 46.3086 176.382 46.3086 152.094C46.3088 127.807 65.9977 108.118 90.2852 108.118Z" fill="#F2F2F2" stroke="#2F195C"/>
<path d="M93.7197 99.7368C97.7046 99.2301 101.738 99.231 105.723 99.7378L105.79 99.7456C116.679 101.175 126.716 106.399 134.135 114.499C141.569 122.615 145.897 133.098 146.353 144.095C146.808 155.093 143.362 165.898 136.624 174.601C130.097 183.032 120.886 188.966 110.534 191.433L109.528 191.662C107.557 192.087 105.56 192.381 103.551 192.545L102.688 192.608C101.706 192.667 100.708 192.7 99.7197 192.7C87.3454 192.687 75.4814 187.767 66.7314 179.017C57.9815 170.267 53.0602 158.403 53.0479 146.029L53.0576 145.17L53.082 144.315V144.314C53.2239 140.238 53.905 136.199 55.1084 132.302C57.7555 123.75 62.8006 116.136 69.6445 110.364C76.4884 104.592 84.8441 100.904 93.7207 99.7378L93.7197 99.7368ZM104.213 99.9292C95.8114 99.1116 87.3459 100.604 79.7314 104.248C72.1171 107.891 65.6433 113.546 61.0088 120.601C56.5191 127.436 53.9206 135.333 53.4717 143.489L53.4355 144.279V144.28C53.4144 144.857 53.4004 145.443 53.4004 146.03V146.031C53.4157 158.311 58.3006 170.083 66.9834 178.767C75.395 187.179 86.7062 192.028 98.5693 192.337L99.7188 192.353H99.7197C100.735 192.353 101.749 192.319 102.751 192.251L102.752 192.252C106.773 191.996 110.742 191.209 114.558 189.916H114.573L114.652 189.888C122.643 187.168 129.74 182.317 135.174 175.858C140.608 169.399 144.174 161.576 145.486 153.238C146.799 144.899 145.808 136.361 142.621 128.544C139.434 120.728 134.171 113.93 127.402 108.887C120.633 103.844 112.614 100.747 104.213 99.9292Z" fill="#090814" stroke="#2F195C"/>
<path d="M99.8945 103.401V111.835H99.5469V103.401H99.8945Z" fill="#090814" stroke="#2F195C"/>
<path d="M69.7 115.764L75.6635 121.728L75.4176 121.973L69.4542 116.01L69.7 115.764Z" fill="#090814" stroke="#2F195C"/>
<path d="M57.0908 145.856H65.5244V146.204H57.0908V145.856Z" fill="#090814" stroke="#2F195C"/>
<path d="M69.4534 176.049L75.4168 170.086L75.6627 170.331L69.6992 176.295L69.4534 176.049Z" fill="#090814" stroke="#2F195C"/>
<path d="M123.776 121.727L129.739 115.764L129.985 116.009L124.021 121.973L123.776 121.727Z" fill="#090814" stroke="#2F195C"/>
<path d="M133.914 145.856H142.348V146.204H133.914V145.856Z" fill="#090814" stroke="#2F195C"/>
<path d="M124.023 170.085L129.987 176.049L129.741 176.294L123.777 170.331L124.023 170.085Z" fill="#090814" stroke="#2F195C"/>
<path d="M99.8945 180.224V188.658H99.5469V180.224H99.8945Z" fill="#090814" stroke="#2F195C"/>
<path d="M99.7197 143.161C100.263 143.161 100.793 143.316 101.25 143.604L101.441 143.735C101.88 144.064 102.215 144.511 102.407 145.024C102.599 145.538 102.641 146.095 102.526 146.631C102.412 147.167 102.146 147.659 101.761 148.049C101.376 148.438 100.887 148.709 100.353 148.83C99.8182 148.951 99.2604 148.916 98.7451 148.73C98.2299 148.544 97.7782 148.215 97.4443 147.78C97.1104 147.346 96.9076 146.824 96.8604 146.278C96.8131 145.732 96.9234 145.185 97.1777 144.699L97.1768 144.698C97.3779 144.322 97.6592 143.994 97.999 143.735C98.4336 143.409 98.95 143.215 99.4883 143.171L99.7197 143.161ZM99.8682 143.516C99.4353 143.49 99.0031 143.576 98.6133 143.766C98.2721 143.932 97.9736 144.173 97.7393 144.47L97.6426 144.6L97.6416 144.603C97.3912 144.97 97.2416 145.396 97.2061 145.837L97.1973 146.027V146.031C97.1992 146.699 97.4654 147.339 97.9375 147.812C98.4097 148.284 99.05 148.55 99.7178 148.552L100.931 148.556L100.718 148.343C100.799 148.308 100.879 148.269 100.956 148.226C101.334 148.012 101.651 147.705 101.875 147.334C102.099 146.963 102.223 146.539 102.236 146.105C102.249 145.672 102.15 145.243 101.948 144.859C101.747 144.475 101.449 144.149 101.085 143.914C100.721 143.679 100.301 143.542 99.8682 143.516Z" fill="#090814" stroke="#2F195C"/>
<path d="M105.284 87.901V99.0309H94.1543V87.901H105.284Z" fill="#090814" stroke="#2F195C"/>
<path d="M99.7197 78.468C104.144 78.468 108.129 79.1044 110.989 80.1174C112.421 80.6247 113.545 81.217 114.301 81.8499C115.059 82.4849 115.392 83.1108 115.393 83.6956C115.393 84.2804 115.059 84.907 114.301 85.5422C113.545 86.1751 112.421 86.7674 110.989 87.2747C108.129 88.2877 104.144 88.9241 99.7197 88.9241C95.2953 88.9241 91.3114 88.2876 88.4512 87.2747C87.0188 86.7674 85.8946 86.1752 85.1387 85.5422C84.3802 84.9071 84.0469 84.2804 84.0469 83.6956C84.0471 83.1108 84.3804 82.4848 85.1387 81.8499C85.8946 81.2169 87.0188 80.6247 88.4512 80.1174C91.3114 79.1045 95.2953 78.468 99.7197 78.468Z" fill="#090814" stroke="#2F195C"/>
<path d="M101.241 120.921V142.833H98.1982V120.921H101.241Z" fill="#090814" stroke="#2F195C"/>
<path d="M617.188 124.996V124.995L647.871 127.173C648.561 127.223 649.203 127.544 649.656 128.067C650.109 128.589 650.337 129.27 650.289 129.96L647.405 170.59C647.356 171.28 647.034 171.923 646.512 172.376C646.054 172.773 645.475 172.997 644.875 173.015L644.617 173.009L613.939 170.831L613.683 170.8C613.09 170.699 612.548 170.396 612.15 169.939C611.696 169.416 611.468 168.734 611.517 168.043L611.522 167.967L611.504 167.892C608.246 154.209 608.793 140.753 614.361 127.573L614.394 127.497L614.399 127.415C614.449 126.725 614.771 126.083 615.294 125.629C615.817 125.176 616.498 124.948 617.188 124.996Z" fill="#F2F2F2" stroke="#2F195C"/>
<path d="M619.17 127.583L645.54 129.454C646.178 129.5 646.772 129.797 647.191 130.28C647.558 130.703 647.765 131.238 647.781 131.793L647.776 132.031L645.212 168.184C645.166 168.822 644.869 169.416 644.386 169.836C643.903 170.255 643.272 170.466 642.634 170.422H642.635L626.299 169.262C623.001 169.025 619.931 167.489 617.765 164.991C615.598 162.493 614.51 159.238 614.74 155.939L614.748 155.828L614.708 155.723C613.435 152.432 613.195 148.49 613.632 144.098C614.069 139.709 615.179 134.908 616.576 129.919L616.59 129.87L616.593 129.82C616.638 129.182 616.936 128.587 617.419 128.168C617.842 127.801 618.377 127.594 618.932 127.578L619.17 127.583Z" fill="white" stroke="#2F195C"/>
<path d="M630.288 138.755C630.376 138.739 630.468 138.748 630.551 138.782C630.634 138.817 630.705 138.875 630.756 138.949C630.805 139.02 630.832 139.103 630.837 139.189C630.659 143.66 630.608 148.12 630.344 152.559L630.216 154.463L630.215 154.475C630.17 155.366 629.969 156.243 629.621 157.065L629.375 157.646L629.997 157.753L632.413 158.168C632.575 158.196 632.629 158.262 632.654 158.31C632.688 158.374 632.705 158.484 632.668 158.618C632.6 158.862 632.418 159.027 632.186 159.032L632.083 159.025L628.684 158.441L628.496 158.408L628.334 158.509C628.226 158.576 628.113 158.636 627.996 158.688L627.988 158.692L627.981 158.694C627.684 158.838 627.36 158.92 627.03 158.934C626.7 158.948 626.371 158.894 626.062 158.776C625.754 158.659 625.473 158.479 625.236 158.249C625.001 158.021 624.815 157.747 624.688 157.444C624.659 157.36 624.664 157.303 624.677 157.261C624.691 157.213 624.725 157.156 624.79 157.1C624.93 156.979 625.145 156.919 625.312 156.947V156.948L627.988 157.408L628.274 157.458L628.459 157.234C628.587 157.079 628.698 156.911 628.791 156.734L628.878 156.553L628.879 156.551C629.243 155.714 629.362 154.778 629.404 153.882C629.426 153.432 629.428 152.981 629.429 152.55C629.429 152.333 629.43 152.122 629.432 151.916L629.445 151.316L629.846 141.3L629.89 140.18L629.026 140.895L624.671 144.503C624.447 144.688 624.163 144.647 623.96 144.444C623.862 144.347 623.821 144.244 623.818 144.17C623.817 144.129 623.825 144.069 623.883 143.998L623.959 143.923L630.027 138.896L630.04 138.886L630.052 138.874C630.117 138.812 630.2 138.771 630.288 138.755Z" fill="#6A38C2" stroke="#2F195C"/>
<path d="M769.039 179.204L797.938 181.255C798.581 181.301 799.179 181.6 799.601 182.087C800.022 182.573 800.234 183.207 800.189 183.849L797.475 222.114C797.428 222.756 797.129 223.354 796.643 223.776C796.156 224.198 795.521 224.41 794.879 224.365H794.88L765.979 222.314H765.98C765.338 222.268 764.739 221.969 764.317 221.482C763.896 220.996 763.684 220.361 763.729 219.718L763.734 219.642L763.717 219.568C760.649 206.686 761.164 194.02 766.406 181.614L766.438 181.538L766.444 181.455C766.491 180.812 766.79 180.215 767.276 179.793C767.702 179.423 768.24 179.215 768.799 179.199L769.039 179.204Z" fill="#F2F2F2" stroke="#2F195C"/>
<path d="M770.903 181.64V181.641L795.739 183.403C796.332 183.445 796.885 183.721 797.274 184.17C797.664 184.62 797.86 185.205 797.818 185.798L795.402 219.849C795.36 220.442 795.083 220.995 794.634 221.384C794.241 221.725 793.743 221.918 793.228 221.933L793.006 221.928L777.621 220.836H777.622C774.523 220.613 771.639 219.169 769.604 216.823C767.568 214.476 766.545 211.418 766.762 208.319L766.77 208.208L766.729 208.104C765.533 205.01 765.306 201.301 765.718 197.167C766.078 193.553 766.924 189.641 768.011 185.572L768.49 183.819L768.504 183.77L768.508 183.72C768.551 183.127 768.827 182.575 769.276 182.185C769.725 181.796 770.31 181.599 770.903 181.64Z" fill="white" stroke="#2F195C"/>
<path d="M775.346 192.565C777.091 192.311 779.177 192.199 780.949 192.652C782.59 193.071 783.916 193.956 784.505 195.645L784.613 195.993V195.996C784.855 196.865 784.841 197.784 784.57 198.644C784.301 199.501 783.788 200.26 783.097 200.833C782.838 201.03 782.559 201.2 782.265 201.338L781.601 201.648L782.132 202.153C782.672 202.667 783.089 203.297 783.353 203.995C783.614 204.689 783.716 205.431 783.652 206.169C783.642 206.241 783.631 206.312 783.618 206.384C783.356 207.776 782.551 209.008 781.381 209.807C780.212 210.605 778.775 210.906 777.384 210.646C777.241 210.617 777.192 210.557 777.169 210.512C777.139 210.452 777.125 210.352 777.158 210.233C777.191 210.114 777.26 210.012 777.345 209.951C777.401 209.911 777.473 209.882 777.565 209.882L777.666 209.893L777.715 209.903H777.752C778.926 210.07 780.12 209.77 781.076 209.066C782.043 208.353 782.688 207.286 782.868 206.099L782.871 206.074L782.873 206.05C782.918 205.185 782.706 204.326 782.265 203.58C781.878 202.928 781.33 202.388 780.677 202.011L780.391 201.86L780.288 201.81H780.174C779.418 201.809 778.673 201.632 777.996 201.295H777.995C777.895 201.244 777.857 201.186 777.841 201.14C777.821 201.085 777.817 201.006 777.847 200.913C777.911 200.711 778.083 200.575 778.251 200.568L778.25 200.567C778.982 200.537 779.71 200.673 780.382 200.965L780.502 201.018L780.632 201.004C781.512 200.915 782.335 200.524 782.959 199.898L782.967 199.889L782.976 199.88C783.496 199.304 783.834 198.585 783.945 197.817C784.043 197.144 783.964 196.459 783.718 195.829L783.603 195.564L783.601 195.559L783.453 195.285C782.679 193.971 781.322 193.401 779.941 193.191C778.655 192.995 777.275 193.098 776.146 193.244L775.68 193.309H775.679C775.421 193.346 775.211 193.182 775.141 192.928C775.107 192.806 775.124 192.715 775.148 192.668C775.16 192.647 775.184 192.612 775.256 192.586L775.346 192.565Z" fill="#6A38C2" stroke="#2F195C"/>
<path d="M770.582 15.4052V15.4061L805.368 17.8739C806.168 17.9316 806.913 18.3041 807.438 18.91C807.964 19.5159 808.228 20.3053 808.172 21.1053L804.901 67.1639C804.844 67.9639 804.471 68.7086 803.865 69.2343C803.259 69.7599 802.469 70.0235 801.669 69.9677H801.668L766.886 67.5009H766.887C766.087 67.4432 765.342 67.0713 764.816 66.4657C764.291 65.8601 764.028 65.0704 764.083 64.2704L764.088 64.1942L764.07 64.12C760.374 48.5948 760.991 33.3263 767.312 18.369L767.345 18.2919L767.351 18.2098C767.408 17.4097 767.781 16.6652 768.387 16.1395C768.992 15.614 769.782 15.3495 770.582 15.4052Z" fill="#F2F2F2" stroke="#2F195C"/>
<path d="M772.832 18.3378L802.73 20.4579V20.4589C803.471 20.5124 804.162 20.8576 804.648 21.4188C805.074 21.9097 805.315 22.5307 805.334 23.1747L805.328 23.452L802.419 64.4403C802.366 65.1811 802.021 65.8705 801.46 66.3573C800.899 66.8442 800.167 67.0888 799.426 67.037H799.427L780.906 65.7235H780.907C777.15 65.4533 773.653 63.7034 771.185 60.8583C768.716 58.0131 767.476 54.3045 767.738 50.5468L767.746 50.4354L767.706 50.3319C766.258 46.5863 765.986 42.1044 766.482 37.12C766.978 32.1386 768.238 26.6918 769.821 21.0341L769.835 20.9852L769.839 20.9344C769.892 20.1937 770.237 19.5042 770.798 19.0175C771.289 18.5915 771.911 18.3507 772.555 18.3319L772.832 18.3378Z" fill="white" stroke="#2F195C"/>
<path d="M783.407 30.2358C784.099 30.1295 784.806 30.1732 785.479 30.3638C788.032 31.2597 789.406 34.245 789.105 36.9272C788.759 39.9839 786.538 42.4079 784.104 44.3813L783.614 44.77C783.117 45.158 782.312 45.7427 781.771 46.4331C781.495 46.7843 781.259 47.1954 781.174 47.6577C781.086 48.135 781.165 48.6314 781.461 49.1177V49.1167C782.121 50.2056 783.222 50.5909 784.297 50.6831C785.096 50.7516 785.933 50.6636 786.659 50.5581L787.343 50.4517C787.713 50.3923 788 50.6303 788.095 50.9702C788.141 51.1356 788.122 51.2749 788.076 51.3628C788.048 51.4158 787.997 51.477 787.889 51.5181L787.759 51.5513C785.771 51.8714 783.838 52.1316 782.161 51.269L782.154 51.2661L782.147 51.2622L781.916 51.1421C781.386 50.8437 780.934 50.4225 780.599 49.9126C780.221 49.3389 780.005 48.6744 779.973 47.9888C780.032 47.3684 780.218 46.7665 780.521 46.2212C780.828 45.6668 781.248 45.1834 781.754 44.8013L781.769 44.7896L781.783 44.7769C782.351 44.2756 782.938 43.8164 783.541 43.3247C783.988 42.96 784.439 42.5821 784.871 42.1714L785.297 41.7485C787.152 39.8148 788.714 36.9887 787.608 34.1069L787.493 33.8286C787.262 33.2372 786.897 32.7068 786.427 32.2798C785.95 31.8471 785.378 31.5318 784.758 31.3599L784.729 31.3521L784.698 31.3472L784.419 31.3169C783.767 31.2695 783.112 31.395 782.522 31.6841C781.932 31.9732 781.431 32.4132 781.069 32.9575L780.923 33.1978C780.101 34.5902 780.473 36.0649 781.366 37.0542C782.247 38.0294 783.683 38.5934 785.104 38.189C785.25 38.1541 785.405 38.1786 785.535 38.2554C785.665 38.3322 785.761 38.4565 785.801 38.6021C785.841 38.7478 785.822 38.9039 785.75 39.0366C785.678 39.1681 785.559 39.2664 785.416 39.312C783.935 39.7422 782.314 39.3346 781.1 38.3921C779.889 37.4525 779.133 36.0225 779.304 34.4487C779.392 33.7505 779.631 33.0794 780.003 32.4819C780.375 31.8845 780.872 31.3744 781.459 30.9868C782.047 30.5991 782.711 30.3429 783.407 30.2358Z" fill="#6A38C2" stroke="#2F195C"/>
<path d="M565.547 121.145C567.986 120.16 570.652 119.891 573.233 120.361L573.748 120.465L573.755 120.467C579.148 121.58 583.425 125.165 587.4 128.987L589.089 130.633C589.159 130.702 589.163 130.752 589.161 130.784C589.158 130.83 589.132 130.896 589.072 130.955C589.013 131.015 588.945 131.042 588.896 131.046C588.868 131.048 588.831 131.046 588.785 131.015L588.736 130.975C586.321 128.598 583.685 126.025 580.734 124.044C577.87 122.121 574.679 120.737 571.064 120.626L570.713 120.619C565.679 120.581 561.889 123.627 558.579 126.803L557.188 128.163L557.179 128.173C555.431 129.994 553.541 131.673 551.53 133.198C549.345 134.727 546.928 135.894 544.373 136.652L543.859 136.799L543.854 136.8C537.838 138.516 531.618 138.371 525.312 138.258C519.23 138.149 513.071 138.069 507.096 139.803L506.523 139.975C506.428 140.004 506.386 139.984 506.364 139.97C506.33 139.948 506.287 139.897 506.265 139.816C506.242 139.735 506.251 139.659 506.274 139.608C506.288 139.578 506.311 139.544 506.36 139.518L506.42 139.493C513.559 137.275 521.101 137.775 528.613 137.857V137.858C534.385 137.924 540.403 137.673 545.946 135.598L546.481 135.392L546.485 135.39C549.119 134.313 551.544 132.784 553.649 130.869C554.648 129.98 555.6 129.045 556.54 128.115C557.483 127.183 558.411 126.256 559.377 125.37L559.383 125.365L559.389 125.359C561.183 123.61 563.266 122.183 565.547 121.145Z" fill="#3F3D56" stroke="#2F195C"/>
<path d="M591.771 120.71C591.829 120.724 591.879 120.757 591.914 120.805L595.633 127.36L597.257 130.224L597.263 130.235L597.271 130.246C597.685 130.896 598.065 131.566 598.41 132.254L598.743 132.949L598.746 132.954L598.749 132.961C598.895 133.257 598.944 133.59 598.89 133.915C598.837 134.227 598.691 134.515 598.473 134.743C597.948 135.116 597.308 135.29 596.666 135.23L596.643 135.228H596.619C594.402 135.23 592.185 135.208 589.968 135.179L583.308 135.093H583.303C583.238 135.093 583.175 135.067 583.129 135.021C583.083 134.975 583.058 134.913 583.058 134.848C583.058 134.783 583.083 134.721 583.129 134.675C583.175 134.629 583.237 134.603 583.302 134.603L590.942 134.68L594.643 134.717C595.285 134.724 595.941 134.735 596.592 134.736C597.065 134.796 597.546 134.719 597.975 134.509L598.028 134.483L598.074 134.445C598.517 134.077 598.445 133.559 598.347 133.255C598.249 132.953 598.058 132.643 597.982 132.505H597.981C597.666 131.928 597.332 131.356 597.016 130.799H597.015L595.216 127.618L591.495 121.06C591.467 121.004 591.462 120.94 591.479 120.88C591.497 120.82 591.537 120.768 591.591 120.737C591.645 120.705 591.71 120.696 591.771 120.71Z" fill="#3F3D56" stroke="#2F195C"/>
<path d="M721.559 78.6885C725.956 76.6701 730.921 77.3115 735.729 78.0059C735.748 78.0091 735.766 78.0208 735.778 78.0371C735.79 78.0534 735.795 78.0738 735.792 78.0938C735.789 78.114 735.778 78.1325 735.762 78.1445C735.754 78.1506 735.744 78.1548 735.734 78.1572L735.704 78.1592L735.7 78.1582L733.713 77.8809C731.69 77.6161 729.576 77.4142 727.504 77.5029C724.907 77.6142 722.341 78.1822 720.066 79.6748L719.615 79.9863C716.418 82.2999 715.443 85.9826 714.834 89.4883L714.59 90.9756L714.588 90.9883C714.333 92.9201 713.927 94.829 713.373 96.6973C712.716 98.6438 711.75 100.471 710.512 102.108L710.26 102.434L710.257 102.438C707.301 106.254 703.366 109.01 699.376 111.835C695.44 114.622 691.45 117.475 688.48 121.459L688.475 121.463L688.403 121.559C688.394 121.571 688.387 121.578 688.383 121.581C688.375 121.58 688.355 121.575 688.331 121.556C688.298 121.53 688.285 121.501 688.282 121.487C688.281 121.482 688.281 121.479 688.282 121.476C688.283 121.472 688.286 121.459 688.301 121.438C691.302 117.376 695.439 114.465 699.599 111.522L701.38 110.256C705.012 107.645 708.67 104.72 711.19 100.861L711.431 100.484L711.434 100.48C712.591 98.5891 713.406 96.5094 713.845 94.3359C714.061 93.3189 714.225 92.2955 714.385 91.2842C714.545 90.2689 714.7 89.267 714.897 88.2734L714.899 88.2656L714.9 88.2578C715.215 86.3532 715.857 84.5172 716.798 82.832C717.857 81.1178 719.38 79.742 721.187 78.8613L721.552 78.6914L721.559 78.6885Z" fill="#3F3D56" stroke="#2F195C"/>
<path d="M731.879 68.627C731.935 68.6031 731.998 68.6013 732.056 68.6211L738.933 71.6982V71.6992L741.933 73.0439L741.945 73.0498L741.957 73.0547C742.915 73.4245 743.846 73.8606 744.744 74.3594L744.752 74.3633L744.759 74.3662C745.052 74.5171 745.291 74.7569 745.44 75.0508C745.584 75.3323 745.637 75.6501 745.597 75.9629C745.394 76.5724 744.982 77.0905 744.431 77.4209L744.41 77.4336L744.391 77.4473C740.82 80.0775 737.192 82.6267 733.585 85.2246C733.533 85.2608 733.469 85.2756 733.406 85.2656C733.343 85.2554 733.286 85.2207 733.248 85.1689C733.21 85.1171 733.193 85.052 733.202 84.9883C733.211 84.9263 733.244 84.8698 733.293 84.8311L739.492 80.3701L742.492 78.209L742.493 78.208C743.015 77.8306 743.567 77.4434 744.097 77.0518L744.098 77.0527C744.195 76.9811 744.42 76.83 744.597 76.6787C744.749 76.5475 744.953 76.3465 745.057 76.0771L745.095 75.957C745.234 75.3976 744.87 75.0234 744.61 74.8369C744.353 74.6518 744.014 74.5151 743.873 74.4492H743.874C743.577 74.3096 743.275 74.1744 742.975 74.041L742.085 73.6455L738.746 72.1514L731.859 69.0693C731.807 69.0409 731.766 68.9948 731.745 68.9385C731.723 68.8793 731.725 68.8139 731.75 68.7559C731.775 68.698 731.821 68.6516 731.879 68.627Z" fill="#3F3D56" stroke="#2F195C"/>
<path d="M809.775 89.395C809.982 89.3944 810.188 89.4346 810.379 89.5132C810.57 89.5917 810.744 89.7073 810.891 89.853C811.037 89.9988 811.154 90.172 811.233 90.3628C811.313 90.5536 811.355 90.7585 811.355 90.9653C811.356 91.172 811.316 91.3767 811.237 91.5679C811.159 91.7592 811.043 91.9339 810.897 92.0806C810.752 92.2272 810.578 92.3436 810.388 92.4233C810.197 92.5031 809.992 92.5448 809.785 92.5454H759.978C759.56 92.5467 759.159 92.3818 758.862 92.0874C758.566 91.793 758.399 91.3928 758.397 90.9751C758.396 90.5574 758.561 90.1562 758.855 89.8599C759.113 89.6007 759.451 89.4398 759.812 89.4028L759.968 89.395H809.775Z" fill="#6A38C2" stroke="#2F195C"/>
<path d="M686.765 183.017C686.771 183.021 686.786 183.032 686.808 183.06L686.807 183.062C690.146 187.589 694.66 190.818 699.122 193.977C703.466 197.052 707.76 200.06 711.051 204.154L711.366 204.553L711.369 204.557C712.902 206.494 714.089 208.679 714.881 211.018H714.882C715.428 212.86 715.846 214.736 716.135 216.634L716.251 217.449L716.253 217.462C716.925 221.728 717.74 226.51 721.504 229.492L721.878 229.775C724.544 231.704 727.604 232.42 730.711 232.553C733.423 232.67 736.199 232.343 738.807 231.976L739.913 231.818L739.919 231.817C739.958 231.811 739.997 231.821 740.029 231.844C740.061 231.868 740.083 231.902 740.089 231.941C740.095 231.98 740.086 232.02 740.062 232.052C740.039 232.084 740.004 232.105 739.966 232.111C734.733 232.867 729.312 233.572 724.47 231.545L724.003 231.339L723.996 231.337L723.584 231.145C721.542 230.15 719.821 228.594 718.624 226.656C717.564 224.757 716.842 222.688 716.488 220.543L716.486 220.535L716.485 220.527L716.327 219.686C716.177 218.844 716.046 217.996 715.911 217.14C715.777 216.287 715.638 215.428 715.475 214.57L715.302 213.713C714.841 211.429 714.009 209.237 712.838 207.225L712.599 206.825L712.597 206.821L712.327 206.399C709.683 202.351 705.921 199.218 702.104 196.427L701.314 195.855C696.162 192.149 690.803 188.722 686.966 183.757L686.599 183.272C686.576 183.242 686.569 183.22 686.566 183.208C686.564 183.195 686.563 183.183 686.566 183.169C686.573 183.137 686.598 183.092 686.645 183.055C686.692 183.018 686.732 183.011 686.748 183.012C686.754 183.013 686.759 183.014 686.765 183.017Z" fill="#3F3D56" stroke="#2F195C"/>
<path d="M737.698 224.942C737.761 224.932 737.826 224.946 737.878 224.983V224.984C741.485 227.582 745.112 230.13 748.683 232.76L748.702 232.775L748.723 232.787C749.274 233.117 749.686 233.634 749.889 234.243C749.929 234.556 749.876 234.875 749.732 235.158C749.583 235.451 749.344 235.69 749.051 235.841L749.044 235.845L749.036 235.849C748.139 236.348 747.207 236.784 746.249 237.154L746.237 237.159L746.225 237.164L743.225 238.508L736.348 241.585C736.29 241.605 736.227 241.604 736.171 241.581C736.113 241.556 736.067 241.51 736.042 241.452C736.017 241.394 736.015 241.328 736.037 241.269C736.058 241.212 736.099 241.164 736.152 241.136L743.038 238.056L746.377 236.562C746.959 236.301 747.57 236.037 748.164 235.758L748.165 235.759C748.306 235.693 748.645 235.556 748.902 235.371C749.145 235.196 749.481 234.856 749.407 234.354L749.387 234.25L749.349 234.131C749.245 233.862 749.042 233.661 748.889 233.53C748.801 233.454 748.7 233.379 748.609 233.313L748.39 233.156L746.785 232H746.784L743.784 229.838L737.59 225.379C737.538 225.341 737.503 225.283 737.494 225.219C737.485 225.155 737.502 225.09 737.54 225.039C737.578 224.987 737.635 224.952 737.698 224.942Z" fill="#3F3D56" stroke="#2F195C"/>
<path d="M800.991 234.076L801.11 234.084C801.386 234.116 801.644 234.241 801.84 234.44C802.064 234.668 802.19 234.975 802.191 235.295C802.193 235.614 802.069 235.922 801.847 236.151C801.624 236.381 801.321 236.514 801.002 236.523H759.643C759.323 236.517 759.018 236.386 758.794 236.158C758.57 235.93 758.444 235.624 758.442 235.304C758.441 234.985 758.565 234.678 758.787 234.448C758.982 234.247 759.238 234.12 759.513 234.085L759.632 234.076H800.991Z" fill="#6A38C2" stroke="#2F195C"/>
<path d="M814.667 3.3938C822.641 4.94385 827.849 12.6648 826.299 20.6391C824.749 28.6135 817.028 33.8213 809.054 32.2713C801.08 30.7212 795.872 23.0002 797.422 15.0259C798.972 7.05164 806.693 1.84376 814.667 3.3938Z" fill="#6A38C2" stroke="#2F195C"/>
<path d="M817.564 13.5871C817.816 13.6024 818.054 13.7043 818.238 13.8742L818.313 13.9516C818.504 14.1683 818.602 14.4515 818.584 14.7384C818.569 14.9904 818.467 15.228 818.297 15.4118L818.221 15.4866L810.303 22.4962C810.178 22.6065 810.029 22.6864 809.868 22.7299C809.706 22.7735 809.537 22.7795 809.373 22.7472L809.345 22.7417C809.133 22.696 808.94 22.5878 808.791 22.4301L808.789 22.4266L808.767 22.4024L805.785 19.0403C805.614 18.8236 805.531 18.5496 805.554 18.2741C805.577 17.995 805.709 17.7356 805.918 17.5501C806.128 17.3647 806.402 17.2676 806.682 17.2786C806.926 17.2883 807.16 17.3801 807.344 17.5378L807.421 17.6094L809.34 19.777L809.671 20.1518L810.046 19.8197L816.778 13.858C816.993 13.6669 817.277 13.5698 817.564 13.5871Z" fill="white" stroke="#2F195C"/>
<path d="M813.589 166.905C822.158 168.57 827.754 176.867 826.089 185.435C824.423 194.004 816.126 199.6 807.558 197.934C798.99 196.269 793.394 187.972 795.059 179.404C796.725 170.835 805.021 165.24 813.589 166.905Z" fill="#6A38C2" stroke="#2F195C"/>
<path d="M816.693 177.831C816.85 177.841 817.004 177.881 817.146 177.95C817.288 178.019 817.415 178.116 817.519 178.235L817.74 178.04L817.522 178.233C817.627 178.351 817.707 178.489 817.758 178.638C817.81 178.788 817.832 178.946 817.822 179.103C817.813 179.261 817.772 179.415 817.703 179.557C817.651 179.663 817.584 179.761 817.503 179.847L817.419 179.93L817.418 179.93L808.928 187.448C808.79 187.57 808.625 187.659 808.447 187.707C808.313 187.743 808.174 187.756 808.037 187.745L807.899 187.726L807.897 187.725C807.675 187.683 807.471 187.577 807.307 187.424L807.239 187.355L807.228 187.343L804.025 183.734L804.024 183.733C803.814 183.495 803.707 183.182 803.726 182.865C803.746 182.547 803.89 182.249 804.129 182.038C804.368 181.827 804.681 181.72 804.999 181.739C805.277 181.756 805.54 181.869 805.743 182.057L805.826 182.142L805.826 182.143L807.9 184.481L808.231 184.855L808.605 184.523L815.822 178.133L815.823 178.132C815.941 178.027 816.079 177.947 816.228 177.895C816.377 177.843 816.535 177.822 816.693 177.831Z" fill="white" stroke="#2F195C"/>
<path d="M656.692 111.412C665.806 113.184 671.759 122.008 669.988 131.123C668.216 140.237 659.391 146.19 650.276 144.418C641.162 142.646 635.21 133.821 636.982 124.707C638.753 115.593 647.578 109.641 656.692 111.412Z" fill="#6A38C2" stroke="#2F195C"/>
<path d="M659.979 123.016C660.324 123.037 660.646 123.193 660.876 123.45L660.876 123.451C661.106 123.711 661.223 124.052 661.202 124.397C661.184 124.7 661.061 124.986 660.857 125.206L660.765 125.297L651.758 133.277C651.607 133.41 651.428 133.506 651.234 133.559C651.04 133.611 650.837 133.618 650.64 133.58L650.589 133.569C650.366 133.517 650.16 133.408 649.993 133.252L649.919 133.177L649.912 133.168L649.907 133.163L646.506 129.331C646.277 129.071 646.16 128.731 646.181 128.385C646.202 128.039 646.359 127.715 646.618 127.485C646.878 127.255 647.219 127.138 647.565 127.159C647.868 127.178 648.154 127.3 648.375 127.504L648.465 127.597L650.668 130.084L650.999 130.458L651.374 130.127L659.035 123.34L659.036 123.341C659.295 123.112 659.634 122.995 659.979 123.016Z" fill="white" stroke="#2F195C"/>
</g>
<defs>
<clipPath id="clip0_406_3">
<rect width="829.692" height="684.73" fill="white"/>
</clipPath>
</defs>
</svg>
